<?xml version="1.0" encoding="utf-8"?>
<!-- Generator: Adobe Illustrator 16.2.1, SVG Export Plug-In . SVG Version: 6.00 Build 0)  -->
<!DOCTYPE svg PUBLIC "-//W3C//DTD SVG 1.1//EN" "http://www.w3.org/Graphics/SVG/1.1/DTD/svg11.dtd">
<svg version="1.1" id="Layer_1" xmlns="http://www.w3.org/2000/svg" xmlns:xlink="http://www.w3.org/1999/xlink" x="0px" y="0px"
	 width="586px" height="19.5px" viewBox="0 -43.556 586 19.5" enable-background="new 0 -43.556 586 19.5" xml:space="preserve">
<path fill="#EDF8FB" stroke="#090A0A" stroke-miterlimit="10" d="M29.7-28.357c0,1.467-1.085,2.657-2.424,2.657H3.424
	C2.085-25.7,1-26.89,1-28.357v-7.411c0-1.467,1.085-2.657,2.424-2.657h23.852c1.339,0,2.424,1.189,2.424,2.657V-28.357z"/>
<path fill="#005824" d="M524.948-29.221c0,1.472-1.085,2.664-2.424,2.664h-23.844c-1.338,0-2.423-1.192-2.423-2.664v-7.432
	c0-1.471,1.085-2.664,2.423-2.664h23.844c1.339,0,2.424,1.193,2.424,2.664V-29.221z"/>
<path fill="#238B45" d="M443.029-29.079c0,1.467-1.085,2.657-2.424,2.657h-23.853c-1.338,0-2.423-1.19-2.423-2.657v-7.412
	c0-1.467,1.085-2.657,2.423-2.657h23.853c1.339,0,2.424,1.19,2.424,2.657V-29.079z"/>
<path fill="#41AE76" d="M354.35-29.079c0,1.467-1.085,2.657-2.424,2.657h-23.853c-1.338,0-2.423-1.19-2.423-2.657v-7.412
	c0-1.467,1.085-2.657,2.423-2.657h23.853c1.339,0,2.424,1.19,2.424,2.657V-29.079z"/>
<path fill="#66C2A4" d="M273.752-28.93c0,1.468-1.085,2.657-2.424,2.657h-23.853c-1.338,0-2.423-1.189-2.423-2.657v-7.411
	c0-1.467,1.085-2.657,2.423-2.657h23.853c1.339,0,2.424,1.19,2.424,2.657V-28.93z"/>
<path fill="#99D8C9" d="M197.237-28.357c0,1.467-1.085,2.657-2.424,2.657H170.96c-1.339,0-2.424-1.189-2.424-2.657v-7.411
	c0-1.467,1.085-2.657,2.424-2.657h23.852c1.339,0,2.424,1.19,2.424,2.657V-28.357z"/>
<path fill="#CCECE6" d="M112.85-28.507c0,1.467-1.085,2.657-2.424,2.657H86.574c-1.339,0-2.424-1.189-2.424-2.657v-7.411
	c0-1.467,1.085-2.657,2.424-2.657h23.852c1.339,0,2.424,1.19,2.424,2.657L112.85-28.507L112.85-28.507z"/>
<g id="guides" display="none">
</g>
<g>
	<path fill="#616163" d="M115.453-30c0.26-0.535,0.767-1.021,1.521-1.459l1.125-0.65c0.504-0.293,0.857-0.543,1.061-0.75
		c0.32-0.324,0.48-0.696,0.48-1.115c0-0.489-0.146-0.877-0.439-1.165s-0.684-0.433-1.172-0.433c-0.723,0-1.223,0.274-1.5,0.823
		c-0.148,0.294-0.23,0.701-0.246,1.222h-1.072c0.012-0.729,0.146-1.325,0.404-1.786c0.457-0.812,1.264-1.22,2.42-1.22
		c0.961,0,1.663,0.261,2.106,0.779c0.443,0.519,0.665,1.098,0.665,1.734c0,0.672-0.236,1.246-0.709,1.723
		c-0.273,0.277-0.764,0.613-1.471,1.008l-0.803,0.445c-0.383,0.211-0.684,0.412-0.902,0.604c-0.391,0.341-0.637,0.718-0.738,1.131
		h4.582v0.996h-5.76C115.044-28.836,115.193-29.465,115.453-30z"/>
	<path fill="#616163" d="M122.329-29.391h1.225v1.276h-1.225V-29.391z"/>
	<path fill="#616163" d="M126.12-30.252c0.07,0.603,0.35,1.018,0.838,1.248c0.25,0.117,0.539,0.176,0.867,0.176
		c0.625,0,1.088-0.199,1.389-0.598c0.301-0.399,0.451-0.84,0.451-1.324c0-0.586-0.179-1.039-0.536-1.359
		c-0.357-0.319-0.786-0.479-1.286-0.479c-0.363,0-0.675,0.07-0.935,0.211c-0.26,0.141-0.481,0.336-0.665,0.586l-0.914-0.053
		l0.639-4.519h4.359v1.021h-3.568l-0.357,2.332c0.195-0.148,0.381-0.26,0.557-0.334c0.312-0.129,0.674-0.193,1.084-0.193
		c0.77,0,1.422,0.248,1.957,0.744c0.535,0.496,0.803,1.125,0.803,1.887c0,0.793-0.245,1.492-0.735,2.099
		c-0.49,0.605-1.272,0.907-2.347,0.907c-0.684,0-1.288-0.191-1.813-0.576c-0.525-0.386-0.819-0.977-0.882-1.772h1.094V-30.252z"/>
	<path fill="#616163" d="M134.934-32.139c0.223,0.031,0.438,0.088,0.646,0.17l1.304,0.51c0.2,0.078,0.364,0.137,0.493,0.176
		c0.208,0.06,0.389,0.088,0.546,0.088c0.286,0,0.528-0.111,0.728-0.337c0.2-0.225,0.335-0.501,0.405-0.829h0.68
		c-0.098,0.556-0.291,1.062-0.578,1.519c-0.287,0.457-0.723,0.686-1.306,0.686c-0.176,0-0.385-0.034-0.628-0.104
		c-0.141-0.043-0.35-0.117-0.628-0.224l-1.198-0.456c-0.148-0.06-0.302-0.104-0.461-0.136c-0.158-0.03-0.289-0.047-0.39-0.047
		c-0.329,0-0.587,0.127-0.775,0.381c-0.11,0.148-0.222,0.4-0.335,0.756h-0.686c0.066-0.323,0.139-0.601,0.217-0.828
		c0.078-0.229,0.215-0.487,0.411-0.776c0.164-0.195,0.341-0.34,0.531-0.435c0.189-0.094,0.412-0.141,0.666-0.141
		C134.689-32.168,134.809-32.158,134.934-32.139z"/>
	<path fill="#616163" d="M147.262-36.364v0.92c-0.27,0.263-0.628,0.718-1.075,1.365c-0.447,0.648-0.843,1.349-1.187,2.099
		c-0.34,0.729-0.598,1.396-0.773,1.998c-0.113,0.387-0.26,1.01-0.439,1.868h-1.166c0.266-1.602,0.852-3.194,1.758-4.78
		c0.535-0.931,1.098-1.732,1.688-2.408h-4.641v-1.062H147.262z"/>
	<path fill="#616163" d="M151.534-35.652c0.398,0.4,0.598,0.883,0.598,1.444c0,0.562-0.199,1.043-0.598,1.441
		c-0.399,0.397-0.881,0.598-1.447,0.598c-0.562,0-1.043-0.199-1.441-0.598c-0.398-0.399-0.598-0.879-0.598-1.441
		c0-0.562,0.199-1.044,0.598-1.444c0.399-0.399,0.879-0.601,1.441-0.601C150.653-36.252,151.135-36.052,151.534-35.652z
		 M150.945-33.354c0.236-0.236,0.354-0.521,0.354-0.854s-0.118-0.616-0.354-0.853c-0.236-0.237-0.522-0.354-0.858-0.354
		c-0.332,0-0.616,0.117-0.853,0.353c-0.237,0.234-0.354,0.52-0.354,0.854c0,0.332,0.118,0.616,0.354,0.854
		c0.236,0.236,0.521,0.354,0.853,0.354C150.423-33,150.709-33.118,150.945-33.354z M154.991-36.469h0.654l-4.693,8.578h-0.654
		L154.991-36.469z M157.282-31.599c0.398,0.398,0.598,0.88,0.598,1.442c0,0.563-0.199,1.044-0.598,1.443s-0.879,0.599-1.441,0.599
		c-0.566,0-1.049-0.199-1.447-0.599s-0.598-0.88-0.598-1.443c0-0.562,0.199-1.044,0.598-1.442c0.399-0.399,0.881-0.6,1.447-0.6
		C156.403-32.198,156.883-31.997,157.282-31.599z M156.693-29.301c0.236-0.237,0.354-0.521,0.354-0.854s-0.118-0.617-0.354-0.854
		s-0.521-0.355-0.853-0.355c-0.336,0-0.622,0.119-0.858,0.355s-0.354,0.521-0.354,0.854s0.118,0.618,0.354,0.854
		c0.236,0.237,0.522,0.354,0.858,0.354C156.173-28.946,156.457-29.063,156.693-29.301z"/>
</g>
<g>
	<path fill="#616163" d="M200.317-33.298c-0.309-0.312-0.463-0.72-0.463-1.22c0-0.625,0.226-1.162,0.679-1.61
		c0.453-0.449,1.095-0.675,1.926-0.675c0.804,0,1.434,0.213,1.891,0.637c0.456,0.424,0.685,0.919,0.685,1.484
		c0,0.523-0.133,0.947-0.398,1.271c-0.148,0.184-0.379,0.363-0.691,0.539c0.349,0.16,0.624,0.344,0.824,0.551
		c0.372,0.391,0.559,0.898,0.559,1.523c0,0.737-0.248,1.363-0.744,1.878c-0.496,0.514-1.197,0.771-2.104,0.771
		c-0.816,0-1.507-0.222-2.071-0.665c-0.564-0.442-0.847-1.087-0.847-1.931c0-0.496,0.121-0.925,0.363-1.286
		c0.242-0.361,0.602-0.638,1.078-0.829C200.709-32.983,200.481-33.13,200.317-33.298z M203.718-29.504
		c0.322-0.265,0.483-0.657,0.483-1.182c0-0.543-0.166-0.955-0.498-1.235c-0.332-0.281-0.758-0.423-1.277-0.423
		c-0.504,0-0.915,0.145-1.233,0.432s-0.478,0.685-0.478,1.191c0,0.438,0.146,0.815,0.437,1.135c0.291,0.318,0.741,0.478,1.351,0.478
		C202.992-29.108,203.396-29.24,203.718-29.504z M203.523-33.653c0.261-0.26,0.392-0.57,0.392-0.931
		c0-0.313-0.125-0.602-0.374-0.863c-0.25-0.262-0.63-0.394-1.141-0.394c-0.507,0-0.873,0.131-1.1,0.394
		c-0.226,0.262-0.339,0.57-0.339,0.922c0,0.396,0.146,0.705,0.438,0.928c0.292,0.225,0.638,0.335,1.035,0.335
		C202.899-33.263,203.262-33.393,203.523-33.653z"/>
	<path fill="#616163" d="M209.472-32.413c0.223,0.031,0.438,0.088,0.646,0.17l1.304,0.51c0.2,0.078,0.364,0.137,0.493,0.176
		c0.208,0.06,0.389,0.088,0.546,0.088c0.286,0,0.528-0.111,0.728-0.337c0.2-0.225,0.335-0.501,0.405-0.829h0.68
		c-0.098,0.556-0.291,1.062-0.578,1.519c-0.287,0.457-0.723,0.686-1.306,0.686c-0.176,0-0.385-0.034-0.628-0.104
		c-0.141-0.043-0.35-0.117-0.628-0.224l-1.198-0.456c-0.148-0.06-0.302-0.104-0.461-0.136c-0.158-0.03-0.289-0.047-0.39-0.047
		c-0.329,0-0.587,0.127-0.775,0.381c-0.11,0.148-0.222,0.4-0.335,0.756h-0.686c0.066-0.323,0.139-0.601,0.217-0.828
		c0.078-0.229,0.215-0.487,0.411-0.776c0.164-0.195,0.341-0.34,0.531-0.435c0.189-0.094,0.412-0.141,0.666-0.141
		C209.227-32.442,209.347-32.433,209.472-32.413z"/>
	<path fill="#616163" d="M215.672-34.329v-0.81c0.762-0.073,1.293-0.197,1.594-0.372c0.301-0.174,0.525-0.585,0.674-1.232h0.832
		v8.354h-1.125v-5.94H215.672z"/>
	<path fill="#616163" d="M226.668-36.084c0.369,0.485,0.554,0.986,0.554,1.503h-1.043c-0.062-0.332-0.162-0.592-0.299-0.779
		c-0.254-0.352-0.639-0.527-1.154-0.527c-0.59,0-1.059,0.272-1.406,0.817c-0.347,0.545-0.541,1.325-0.58,2.341
		c0.242-0.354,0.547-0.621,0.914-0.797c0.336-0.156,0.711-0.234,1.125-0.234c0.703,0,1.316,0.226,1.84,0.675
		c0.524,0.448,0.785,1.118,0.785,2.01c0,0.762-0.248,1.437-0.744,2.023c-0.496,0.588-1.203,0.883-2.121,0.883
		c-0.785,0-1.463-0.299-2.033-0.895c-0.57-0.596-0.855-1.599-0.855-3.009c0-1.043,0.127-1.928,0.381-2.654
		c0.488-1.391,1.381-2.086,2.678-2.086C225.646-36.813,226.298-36.57,226.668-36.084z M225.876-29.668
		c0.275-0.373,0.413-0.813,0.413-1.321c0-0.43-0.123-0.839-0.369-1.229c-0.246-0.389-0.693-0.583-1.342-0.583
		c-0.453,0-0.851,0.15-1.192,0.451c-0.341,0.302-0.513,0.754-0.513,1.359c0,0.531,0.155,0.978,0.466,1.339s0.741,0.542,1.292,0.542
		C225.187-29.108,225.602-29.295,225.876-29.668z"/>
	<path fill="#616163" d="M231.746-35.927c0.398,0.4,0.598,0.883,0.598,1.444c0,0.562-0.199,1.043-0.598,1.441
		c-0.399,0.397-0.881,0.598-1.447,0.598c-0.562,0-1.043-0.199-1.441-0.598c-0.398-0.399-0.598-0.879-0.598-1.441
		c0-0.562,0.199-1.044,0.598-1.444c0.399-0.399,0.879-0.601,1.441-0.601C230.864-36.526,231.347-36.326,231.746-35.927z
		 M231.156-33.629c0.236-0.236,0.354-0.521,0.354-0.854s-0.118-0.616-0.354-0.853c-0.236-0.237-0.522-0.354-0.858-0.354
		c-0.332,0-0.616,0.117-0.853,0.353c-0.237,0.234-0.354,0.52-0.354,0.854c0,0.332,0.118,0.616,0.354,0.854
		c0.236,0.236,0.521,0.354,0.853,0.354C230.633-33.274,230.919-33.393,231.156-33.629z M235.203-36.743h0.654l-4.693,8.578h-0.654
		L235.203-36.743z M237.494-31.873c0.398,0.398,0.598,0.88,0.598,1.442c0,0.563-0.199,1.044-0.598,1.443
		c-0.399,0.399-0.879,0.599-1.441,0.599c-0.566,0-1.049-0.199-1.447-0.599s-0.598-0.88-0.598-1.443c0-0.562,0.199-1.044,0.598-1.442
		c0.399-0.399,0.881-0.6,1.447-0.6C236.614-32.472,237.094-32.272,237.494-31.873z M236.904-29.575
		c0.236-0.237,0.354-0.521,0.354-0.854s-0.118-0.617-0.354-0.854c-0.236-0.236-0.521-0.355-0.853-0.355
		c-0.336,0-0.622,0.119-0.858,0.355c-0.236,0.236-0.354,0.521-0.354,0.854s0.118,0.618,0.354,0.854
		c0.236,0.237,0.522,0.354,0.858,0.354C236.383-29.22,236.668-29.338,236.904-29.575z"/>
</g>
<g>
	<path fill="#616163" d="M275.717-34.478v-0.81c0.763-0.073,1.293-0.197,1.595-0.372c0.301-0.174,0.524-0.585,0.674-1.232h0.832
		v8.354h-1.125v-5.94H275.717z"/>
	<path fill="#616163" d="M287.518-36.788v0.92c-0.27,0.263-0.627,0.718-1.074,1.365c-0.447,0.648-0.844,1.349-1.188,2.099
		c-0.34,0.729-0.598,1.396-0.772,1.998c-0.113,0.387-0.261,1.01-0.438,1.868h-1.166c0.266-1.602,0.852-3.194,1.758-4.78
		c0.535-0.931,1.098-1.732,1.688-2.408h-4.641v-1.062H287.518z"/>
	<path fill="#616163" d="M289.539-32.562c0.223,0.031,0.438,0.088,0.646,0.17l1.304,0.51c0.2,0.078,0.364,0.137,0.493,0.176
		c0.208,0.06,0.389,0.088,0.546,0.088c0.286,0,0.528-0.111,0.728-0.337c0.201-0.225,0.336-0.501,0.405-0.829h0.681
		c-0.099,0.556-0.291,1.062-0.578,1.519s-0.723,0.686-1.307,0.686c-0.176,0-0.385-0.034-0.628-0.104
		c-0.141-0.043-0.35-0.117-0.628-0.224l-1.197-0.456c-0.148-0.06-0.303-0.104-0.461-0.136c-0.158-0.03-0.289-0.047-0.391-0.047
		c-0.329,0-0.587,0.127-0.775,0.381c-0.109,0.148-0.222,0.4-0.334,0.756h-0.687c0.065-0.323,0.139-0.601,0.217-0.828
		c0.078-0.229,0.216-0.487,0.411-0.776c0.164-0.195,0.341-0.34,0.531-0.435c0.189-0.094,0.412-0.141,0.666-0.141
		C289.295-32.592,289.414-32.583,289.539-32.562z"/>
	<path fill="#616163" d="M296.416-30.424c0.26-0.535,0.768-1.021,1.521-1.459l1.125-0.65c0.504-0.293,0.857-0.543,1.061-0.75
		c0.32-0.324,0.48-0.696,0.48-1.115c0-0.489-0.146-0.877-0.439-1.165s-0.684-0.433-1.172-0.433c-0.723,0-1.223,0.274-1.5,0.823
		c-0.148,0.294-0.23,0.701-0.246,1.222h-1.072c0.014-0.729,0.146-1.325,0.404-1.786c0.457-0.812,1.264-1.22,2.42-1.22
		c0.961,0,1.664,0.261,2.107,0.779c0.441,0.519,0.664,1.098,0.664,1.734c0,0.672-0.236,1.246-0.709,1.723
		c-0.273,0.277-0.764,0.613-1.471,1.008l-0.803,0.445c-0.383,0.211-0.684,0.412-0.902,0.604c-0.391,0.341-0.637,0.718-0.738,1.131
		h4.582v0.996h-5.76C296.008-29.26,296.156-29.888,296.416-30.424z"/>
	<path fill="#616163" d="M303.75-30.676c0.07,0.603,0.35,1.018,0.838,1.248c0.25,0.117,0.539,0.176,0.867,0.176
		c0.625,0,1.088-0.199,1.389-0.598c0.301-0.399,0.451-0.84,0.451-1.324c0-0.586-0.18-1.039-0.537-1.359
		c-0.355-0.319-0.785-0.479-1.285-0.479c-0.363,0-0.676,0.07-0.936,0.211s-0.48,0.336-0.664,0.586l-0.914-0.053l0.639-4.519h4.359
		v1.021h-3.568l-0.357,2.332c0.195-0.148,0.381-0.26,0.557-0.334c0.312-0.129,0.674-0.193,1.084-0.193
		c0.771,0,1.422,0.248,1.957,0.744s0.803,1.125,0.803,1.887c0,0.793-0.244,1.492-0.734,2.099c-0.49,0.605-1.271,0.907-2.346,0.907
		c-0.686,0-1.289-0.191-1.814-0.576c-0.525-0.386-0.818-0.977-0.881-1.772h1.094V-30.676z"/>
	<path fill="#616163" d="M312.812-36.076c0.398,0.4,0.6,0.883,0.6,1.444c0,0.562-0.199,1.043-0.6,1.441
		c-0.398,0.397-0.881,0.598-1.445,0.598c-0.562,0-1.043-0.199-1.441-0.598c-0.398-0.399-0.598-0.879-0.598-1.441
		c0-0.562,0.197-1.044,0.598-1.444c0.398-0.399,0.879-0.601,1.441-0.601C311.932-36.676,312.416-36.475,312.812-36.076z
		 M312.225-33.778c0.236-0.236,0.354-0.521,0.354-0.854s-0.117-0.616-0.354-0.853c-0.236-0.237-0.521-0.354-0.857-0.354
		c-0.332,0-0.617,0.117-0.854,0.353c-0.238,0.234-0.354,0.52-0.354,0.854c0,0.332,0.117,0.616,0.354,0.854
		c0.236,0.236,0.521,0.354,0.854,0.354C311.703-33.424,311.988-33.543,312.225-33.778z M316.27-36.892h0.654l-4.693,8.578h-0.652
		L316.27-36.892z M318.561-32.022c0.398,0.398,0.6,0.88,0.6,1.442c0,0.563-0.199,1.044-0.6,1.443
		c-0.398,0.399-0.879,0.599-1.439,0.599c-0.566,0-1.049-0.199-1.447-0.599s-0.598-0.88-0.598-1.443c0-0.562,0.197-1.044,0.598-1.442
		c0.398-0.399,0.881-0.6,1.447-0.6C317.682-32.622,318.164-32.422,318.561-32.022z M317.973-29.724
		c0.236-0.237,0.354-0.521,0.354-0.854s-0.117-0.617-0.354-0.854s-0.521-0.355-0.854-0.355c-0.336,0-0.621,0.119-0.857,0.355
		s-0.354,0.521-0.354,0.854s0.117,0.618,0.354,0.854c0.236,0.237,0.521,0.354,0.857,0.354
		C317.453-29.37,317.736-29.487,317.973-29.724z"/>
</g>
<g>
	<path fill="#616163" d="M357.52-30.242c0.261-0.535,0.768-1.021,1.521-1.459l1.125-0.65c0.504-0.293,0.856-0.543,1.061-0.75
		c0.32-0.324,0.48-0.696,0.48-1.115c0-0.489-0.146-0.877-0.439-1.165s-0.684-0.433-1.172-0.433c-0.723,0-1.223,0.274-1.5,0.823
		c-0.147,0.294-0.229,0.701-0.246,1.222h-1.072c0.013-0.729,0.146-1.325,0.404-1.786c0.457-0.812,1.265-1.22,2.42-1.22
		c0.961,0,1.663,0.261,2.106,0.779c0.442,0.519,0.665,1.098,0.665,1.734c0,0.672-0.236,1.246-0.709,1.723
		c-0.273,0.277-0.765,0.613-1.472,1.008l-0.803,0.445c-0.383,0.211-0.684,0.412-0.902,0.604c-0.391,0.341-0.637,0.718-0.737,1.131
		h4.582v0.996h-5.761C357.11-29.078,357.26-29.707,357.52-30.242z"/>
	<path fill="#616163" d="M368.84-36.052c0.369,0.485,0.554,0.986,0.554,1.503h-1.043c-0.062-0.332-0.162-0.592-0.299-0.779
		c-0.254-0.352-0.639-0.527-1.154-0.527c-0.59,0-1.059,0.272-1.406,0.817c-0.347,0.545-0.54,1.325-0.579,2.341
		c0.241-0.354,0.547-0.621,0.914-0.797c0.336-0.156,0.711-0.234,1.125-0.234c0.702,0,1.315,0.226,1.84,0.675
		c0.523,0.448,0.785,1.118,0.785,2.01c0,0.762-0.248,1.437-0.744,2.023c-0.496,0.588-1.203,0.883-2.121,0.883
		c-0.785,0-1.463-0.299-2.033-0.895s-0.854-1.599-0.854-3.009c0-1.043,0.127-1.928,0.381-2.654c0.487-1.391,1.381-2.086,2.678-2.086
		C367.817-36.781,368.471-36.538,368.84-36.052z M368.049-29.635c0.274-0.373,0.413-0.813,0.413-1.321
		c0-0.43-0.123-0.839-0.369-1.229c-0.246-0.389-0.693-0.583-1.342-0.583c-0.453,0-0.852,0.15-1.192,0.451
		c-0.341,0.302-0.513,0.754-0.513,1.359c0,0.531,0.155,0.978,0.466,1.339c0.312,0.361,0.741,0.542,1.292,0.542
		C367.358-29.076,367.773-29.262,368.049-29.635z"/>
	<path fill="#616163" d="M373.667-32.381c0.223,0.031,0.438,0.088,0.646,0.17l1.304,0.51c0.2,0.078,0.364,0.137,0.493,0.176
		c0.208,0.06,0.39,0.088,0.546,0.088c0.286,0,0.528-0.111,0.729-0.337c0.2-0.225,0.335-0.501,0.405-0.829h0.68
		c-0.098,0.556-0.291,1.062-0.578,1.519s-0.723,0.686-1.306,0.686c-0.176,0-0.385-0.034-0.628-0.104
		c-0.142-0.043-0.351-0.117-0.628-0.224l-1.198-0.456c-0.148-0.06-0.302-0.104-0.461-0.136c-0.158-0.03-0.289-0.047-0.391-0.047
		c-0.329,0-0.587,0.127-0.774,0.381c-0.11,0.148-0.223,0.4-0.335,0.756h-0.687c0.066-0.323,0.14-0.601,0.218-0.828
		c0.077-0.229,0.215-0.487,0.41-0.776c0.164-0.195,0.342-0.34,0.531-0.435c0.189-0.094,0.412-0.141,0.666-0.141
		C373.422-32.41,373.542-32.401,373.667-32.381z"/>
	<path fill="#616163" d="M383.704-28.356v-2.05h-3.681v-1.031l3.845-5.332h0.891v5.443h1.236v0.92h-1.236v2.051L383.704-28.356
		L383.704-28.356z M383.687-31.326v-3.811l-2.688,3.811H383.687z"/>
	<path fill="#616163" d="M391.995-35.404c0.375,0.691,0.562,1.64,0.562,2.842c0,1.142-0.17,2.084-0.51,2.83
		c-0.492,1.07-1.297,1.605-2.414,1.605c-1.008,0-1.758-0.438-2.25-1.312c-0.41-0.729-0.615-1.711-0.615-2.94
		c0-0.953,0.123-1.771,0.369-2.455c0.461-1.273,1.295-1.91,2.502-1.91C390.726-36.746,391.511-36.299,391.995-35.404z
		 M390.934-29.815c0.325-0.483,0.487-1.387,0.487-2.707c0-0.952-0.118-1.736-0.353-2.353c-0.234-0.615-0.69-0.923-1.367-0.923
		c-0.622,0-1.077,0.292-1.364,0.876c-0.288,0.584-0.433,1.443-0.433,2.581c0,0.854,0.093,1.543,0.276,2.062
		c0.282,0.793,0.763,1.189,1.444,1.189C390.173-29.088,390.608-29.33,390.934-29.815z"/>
	<path fill="#616163" d="M396.94-35.894c0.398,0.4,0.599,0.883,0.599,1.444c0,0.562-0.199,1.043-0.599,1.441
		c-0.398,0.397-0.881,0.598-1.446,0.598c-0.562,0-1.043-0.199-1.441-0.598c-0.398-0.399-0.598-0.879-0.598-1.441
		c0-0.562,0.198-1.044,0.598-1.444c0.399-0.399,0.879-0.601,1.441-0.601C396.06-36.494,396.542-36.294,396.94-35.894z
		 M396.352-33.596c0.236-0.236,0.354-0.521,0.354-0.854s-0.118-0.616-0.354-0.853c-0.235-0.237-0.521-0.354-0.857-0.354
		c-0.332,0-0.616,0.117-0.854,0.353c-0.237,0.234-0.354,0.52-0.354,0.854c0,0.332,0.118,0.616,0.354,0.854
		c0.236,0.236,0.521,0.354,0.854,0.354C395.829-33.242,396.114-33.361,396.352-33.596z M400.397-36.711h0.654l-4.693,8.578h-0.653
		L400.397-36.711z M402.688-31.841c0.398,0.398,0.599,0.88,0.599,1.442c0,0.563-0.199,1.044-0.599,1.443
		c-0.398,0.399-0.879,0.599-1.44,0.599c-0.566,0-1.05-0.199-1.447-0.599c-0.398-0.399-0.598-0.88-0.598-1.443
		c0-0.562,0.198-1.044,0.598-1.442c0.399-0.399,0.881-0.6,1.447-0.6C401.81-32.44,402.29-32.24,402.688-31.841z M402.1-29.543
		c0.236-0.237,0.354-0.521,0.354-0.854s-0.118-0.617-0.354-0.854c-0.235-0.236-0.521-0.355-0.853-0.355
		c-0.336,0-0.622,0.119-0.858,0.355s-0.354,0.521-0.354,0.854s0.117,0.618,0.354,0.854c0.236,0.237,0.522,0.354,0.858,0.354
		C401.579-29.188,401.864-29.305,402.1-29.543z"/>
</g>
<g>
	<path fill="#616163" d="M448.956-28.69v-2.05h-3.68v-1.031l3.844-5.332h0.891v5.443h1.236v0.92h-1.236v2.051L448.956-28.69
		L448.956-28.69z M448.938-31.66v-3.811l-2.689,3.811H448.938z"/>
	<path fill="#616163" d="M452.794-34.631v-0.81c0.763-0.073,1.293-0.197,1.594-0.372c0.302-0.174,0.525-0.585,0.675-1.232h0.832
		v8.354h-1.125v-5.94H452.794z"/>
	<path fill="#616163" d="M459.942-32.715c0.223,0.031,0.438,0.088,0.646,0.17l1.305,0.51c0.199,0.078,0.363,0.137,0.492,0.176
		c0.208,0.06,0.39,0.088,0.547,0.088c0.285,0,0.527-0.111,0.728-0.337c0.2-0.225,0.335-0.501,0.405-0.829h0.68
		c-0.098,0.556-0.291,1.062-0.578,1.519s-0.723,0.686-1.306,0.686c-0.177,0-0.386-0.034-0.628-0.104
		c-0.142-0.043-0.351-0.117-0.628-0.224l-1.198-0.456c-0.148-0.06-0.302-0.104-0.461-0.136c-0.158-0.03-0.289-0.047-0.391-0.047
		c-0.328,0-0.587,0.127-0.774,0.381c-0.11,0.148-0.222,0.4-0.335,0.756h-0.687c0.066-0.323,0.14-0.601,0.218-0.828
		c0.077-0.229,0.215-0.487,0.41-0.776c0.164-0.195,0.342-0.34,0.531-0.435c0.189-0.094,0.412-0.141,0.666-0.141
		C459.697-32.744,459.817-32.735,459.942-32.715z"/>
	<path fill="#616163" d="M467.478-30.828c0.069,0.603,0.35,1.018,0.838,1.248c0.25,0.117,0.539,0.176,0.866,0.176
		c0.625,0,1.089-0.199,1.39-0.598c0.301-0.399,0.451-0.84,0.451-1.324c0-0.586-0.18-1.039-0.536-1.359
		c-0.357-0.319-0.786-0.479-1.286-0.479c-0.363,0-0.675,0.07-0.935,0.211c-0.261,0.141-0.481,0.336-0.666,0.586l-0.913-0.053
		l0.639-4.519h4.358v1.021h-3.567l-0.357,2.332c0.195-0.148,0.382-0.26,0.558-0.334c0.312-0.129,0.674-0.193,1.084-0.193
		c0.77,0,1.422,0.248,1.957,0.744s0.803,1.125,0.803,1.887c0,0.793-0.245,1.492-0.735,2.099c-0.489,0.605-1.271,0.907-2.347,0.907
		c-0.684,0-1.288-0.191-1.812-0.576c-0.525-0.386-0.819-0.977-0.883-1.772h1.095V-30.828z"/>
	<path fill="#616163" d="M478.944-36.94v0.92c-0.271,0.263-0.628,0.718-1.075,1.365c-0.447,0.648-0.843,1.349-1.188,2.099
		c-0.34,0.729-0.598,1.396-0.772,1.998c-0.113,0.387-0.26,1.01-0.439,1.868h-1.166c0.267-1.602,0.853-3.194,1.759-4.78
		c0.534-0.931,1.098-1.732,1.688-2.408h-4.641v-1.062H478.944z"/>
	<path fill="#616163" d="M483.216-36.228c0.398,0.4,0.599,0.883,0.599,1.444c0,0.562-0.199,1.043-0.599,1.441
		c-0.398,0.397-0.881,0.598-1.446,0.598c-0.562,0-1.043-0.199-1.441-0.598c-0.398-0.399-0.598-0.879-0.598-1.441
		c0-0.562,0.198-1.044,0.598-1.444c0.399-0.399,0.879-0.601,1.441-0.601C482.335-36.828,482.817-36.628,483.216-36.228z
		 M482.627-33.93c0.236-0.236,0.354-0.521,0.354-0.854s-0.118-0.616-0.354-0.853c-0.236-0.237-0.521-0.354-0.857-0.354
		c-0.332,0-0.616,0.117-0.854,0.353c-0.237,0.234-0.354,0.52-0.354,0.854c0,0.332,0.117,0.616,0.354,0.854
		c0.236,0.236,0.521,0.354,0.854,0.354C482.104-33.576,482.391-33.695,482.627-33.93z M486.673-37.045h0.654l-4.693,8.578h-0.653
		L486.673-37.045z M488.964-32.175c0.398,0.398,0.599,0.88,0.599,1.442c0,0.563-0.199,1.044-0.599,1.443
		c-0.398,0.399-0.879,0.599-1.44,0.599c-0.566,0-1.049-0.199-1.447-0.599s-0.598-0.88-0.598-1.443c0-0.562,0.198-1.044,0.598-1.442
		c0.398-0.399,0.881-0.6,1.447-0.6C488.085-32.774,488.565-32.574,488.964-32.175z M488.375-29.877
		c0.236-0.237,0.354-0.521,0.354-0.854s-0.118-0.617-0.354-0.854s-0.521-0.355-0.853-0.355c-0.336,0-0.622,0.119-0.858,0.355
		s-0.354,0.521-0.354,0.854s0.117,0.618,0.354,0.854c0.236,0.237,0.522,0.354,0.858,0.354
		C487.854-29.522,488.139-29.639,488.375-29.877z"/>
</g>
<g>
	<path fill="#616163" d="M528.884-31.947c0.07,0.603,0.35,1.018,0.838,1.248c0.25,0.117,0.539,0.176,0.867,0.176
		c0.625,0,1.088-0.199,1.389-0.598c0.301-0.399,0.451-0.84,0.451-1.324c0-0.586-0.179-1.039-0.536-1.359
		c-0.356-0.319-0.786-0.479-1.286-0.479c-0.362,0-0.675,0.07-0.935,0.211s-0.481,0.336-0.665,0.586l-0.914-0.053l0.64-4.519h4.358
		v1.021h-3.568l-0.356,2.332c0.194-0.148,0.381-0.26,0.557-0.334c0.312-0.129,0.674-0.193,1.084-0.193
		c0.771,0,1.422,0.248,1.957,0.744s0.803,1.125,0.803,1.887c0,0.793-0.245,1.492-0.734,2.099c-0.49,0.605-1.272,0.907-2.348,0.907
		c-0.684,0-1.288-0.191-1.812-0.576c-0.525-0.386-0.819-0.977-0.882-1.772h1.094V-31.947z"/>
	<path fill="#616163" d="M535.218-34.719c-0.309-0.312-0.463-0.72-0.463-1.22c0-0.625,0.227-1.162,0.679-1.61
		c0.453-0.449,1.095-0.675,1.926-0.675c0.805,0,1.436,0.213,1.892,0.637s0.685,0.919,0.685,1.484c0,0.523-0.133,0.947-0.396,1.271
		c-0.148,0.184-0.379,0.363-0.691,0.539c0.35,0.16,0.623,0.344,0.823,0.551c0.372,0.391,0.559,0.898,0.559,1.523
		c0,0.737-0.248,1.363-0.744,1.878c-0.495,0.514-1.196,0.771-2.104,0.771c-0.816,0-1.507-0.222-2.071-0.665
		c-0.563-0.442-0.847-1.087-0.847-1.931c0-0.496,0.121-0.925,0.363-1.286s0.602-0.638,1.078-0.829
		C535.61-34.404,535.382-34.551,535.218-34.719z M538.619-30.925c0.321-0.265,0.482-0.657,0.482-1.182
		c0-0.543-0.166-0.955-0.498-1.235c-0.332-0.281-0.758-0.423-1.276-0.423c-0.504,0-0.915,0.145-1.233,0.432
		s-0.478,0.685-0.478,1.191c0,0.438,0.146,0.815,0.437,1.135c0.291,0.318,0.741,0.478,1.351,0.478
		C537.892-30.529,538.297-30.661,538.619-30.925z M538.424-35.074c0.261-0.26,0.392-0.57,0.392-0.931
		c0-0.313-0.125-0.602-0.374-0.863c-0.25-0.262-0.63-0.394-1.141-0.394c-0.507,0-0.873,0.131-1.1,0.394
		c-0.227,0.262-0.339,0.57-0.339,0.922c0,0.396,0.146,0.705,0.438,0.928c0.293,0.225,0.638,0.335,1.035,0.335
		C537.8-34.684,538.163-34.814,538.424-35.074z"/>
	<path fill="#616163" d="M543.372-33.834c0.223,0.031,0.438,0.088,0.646,0.17l1.304,0.51c0.199,0.078,0.363,0.137,0.493,0.176
		c0.207,0.06,0.39,0.088,0.546,0.088c0.285,0,0.528-0.111,0.729-0.337c0.2-0.225,0.335-0.501,0.405-0.829h0.68
		c-0.098,0.556-0.29,1.062-0.578,1.519c-0.287,0.457-0.723,0.686-1.306,0.686c-0.176,0-0.385-0.034-0.628-0.104
		c-0.142-0.043-0.351-0.117-0.628-0.224l-1.198-0.456c-0.148-0.06-0.302-0.104-0.461-0.136c-0.158-0.03-0.288-0.047-0.391-0.047
		c-0.328,0-0.588,0.127-0.774,0.381c-0.109,0.148-0.223,0.4-0.335,0.756h-0.687c0.066-0.323,0.14-0.601,0.219-0.828
		c0.077-0.229,0.215-0.487,0.409-0.776c0.164-0.195,0.343-0.34,0.531-0.435c0.189-0.094,0.412-0.141,0.666-0.141
		C543.127-33.863,543.247-33.854,543.372-33.834z"/>
	<path fill="#616163" d="M550.567-34.719c-0.309-0.312-0.463-0.72-0.463-1.22c0-0.625,0.228-1.162,0.68-1.61
		c0.452-0.449,1.095-0.675,1.926-0.675c0.804,0,1.435,0.213,1.891,0.637s0.686,0.919,0.686,1.484c0,0.523-0.134,0.947-0.397,1.271
		c-0.147,0.184-0.379,0.363-0.69,0.539c0.349,0.16,0.623,0.344,0.822,0.551c0.372,0.391,0.56,0.898,0.56,1.523
		c0,0.737-0.248,1.363-0.744,1.878c-0.496,0.514-1.197,0.771-2.104,0.771c-0.815,0-1.507-0.222-2.07-0.665
		c-0.564-0.442-0.848-1.087-0.848-1.931c0-0.496,0.121-0.925,0.363-1.286s0.602-0.638,1.078-0.829
		C550.96-34.404,550.731-34.551,550.567-34.719z M553.969-30.925c0.322-0.265,0.483-0.657,0.483-1.182
		c0-0.543-0.166-0.955-0.498-1.235c-0.332-0.281-0.759-0.423-1.277-0.423c-0.504,0-0.915,0.145-1.233,0.432
		c-0.317,0.287-0.478,0.685-0.478,1.191c0,0.438,0.146,0.815,0.437,1.135c0.291,0.318,0.741,0.478,1.352,0.478
		C553.241-30.529,553.646-30.661,553.969-30.925z M553.773-35.074c0.262-0.26,0.393-0.57,0.393-0.931
		c0-0.313-0.125-0.602-0.374-0.863c-0.25-0.262-0.63-0.394-1.142-0.394c-0.507,0-0.873,0.131-1.1,0.394
		c-0.226,0.262-0.339,0.57-0.339,0.922c0,0.396,0.146,0.705,0.438,0.928c0.293,0.225,0.639,0.335,1.035,0.335
		C553.149-34.684,553.513-34.814,553.773-35.074z"/>
	<path fill="#616163" d="M557.581-31.947c0.069,0.603,0.35,1.018,0.838,1.248c0.25,0.117,0.539,0.176,0.867,0.176
		c0.625,0,1.088-0.199,1.389-0.598c0.301-0.399,0.451-0.84,0.451-1.324c0-0.586-0.18-1.039-0.536-1.359
		c-0.357-0.319-0.786-0.479-1.286-0.479c-0.363,0-0.675,0.07-0.935,0.211c-0.261,0.141-0.481,0.336-0.665,0.586l-0.914-0.053
		l0.64-4.519h4.358v1.021h-3.568l-0.357,2.332c0.195-0.148,0.382-0.26,0.558-0.334c0.312-0.129,0.674-0.193,1.084-0.193
		c0.77,0,1.422,0.248,1.957,0.744s0.803,1.125,0.803,1.887c0,0.793-0.245,1.492-0.735,2.099c-0.489,0.605-1.271,0.907-2.347,0.907
		c-0.684,0-1.288-0.191-1.812-0.576c-0.525-0.386-0.819-0.977-0.883-1.772h1.095V-31.947z"/>
	<path fill="#616163" d="M563.798-31.086h1.225v1.276h-1.225V-31.086z"/>
	<path fill="#616163" d="M570.091-29.809v-2.05h-3.68v-1.031l3.844-5.332h0.891v5.443h1.236v0.92h-1.236v2.051L570.091-29.809
		L570.091-29.809z M570.073-32.779v-3.811l-2.689,3.811H570.073z"/>
	<path fill="#616163" d="M576.653-37.347c0.398,0.4,0.599,0.883,0.599,1.444c0,0.562-0.199,1.043-0.599,1.441
		c-0.398,0.397-0.881,0.598-1.446,0.598c-0.562,0-1.043-0.199-1.441-0.598c-0.397-0.399-0.598-0.879-0.598-1.441
		c0-0.562,0.198-1.044,0.598-1.444c0.399-0.399,0.879-0.601,1.441-0.601C575.772-37.947,576.255-37.747,576.653-37.347z
		 M576.064-35.05c0.236-0.236,0.354-0.521,0.354-0.854s-0.118-0.616-0.354-0.853c-0.235-0.237-0.521-0.354-0.857-0.354
		c-0.332,0-0.616,0.117-0.854,0.353c-0.236,0.234-0.354,0.52-0.354,0.854c0,0.332,0.118,0.616,0.354,0.854
		c0.236,0.236,0.521,0.354,0.854,0.354C575.542-34.695,575.828-34.814,576.064-35.05z M580.11-38.164h0.654l-4.693,8.578h-0.653
		L580.11-38.164z M582.401-33.294c0.398,0.398,0.599,0.88,0.599,1.442c0,0.563-0.199,1.044-0.599,1.443
		c-0.398,0.399-0.879,0.599-1.44,0.599c-0.566,0-1.049-0.199-1.447-0.599c-0.397-0.399-0.598-0.88-0.598-1.443
		c0-0.562,0.198-1.044,0.598-1.442c0.399-0.399,0.881-0.6,1.447-0.6C581.522-33.893,582.003-33.693,582.401-33.294z M581.812-30.996
		c0.236-0.237,0.354-0.521,0.354-0.854s-0.118-0.617-0.354-0.854c-0.235-0.236-0.521-0.355-0.853-0.355
		c-0.336,0-0.622,0.119-0.858,0.355c-0.235,0.236-0.354,0.521-0.354,0.854s0.118,0.618,0.354,0.854
		c0.236,0.237,0.522,0.354,0.858,0.354C581.292-30.641,581.576-30.759,581.812-30.996z"/>
</g>
<g>
	<path fill="#646568" d="M35.788-36.785h1.377l2.865,6.974l1.482-6.974h1.107l-1.828,8.607h-1.307l-2.936-6.967l-1.477,6.967h-1.113
		L35.788-36.785z"/>
	<path fill="#646568" d="M48.597-31.446c-0.215,1.012-0.639,1.848-1.271,2.508s-1.467,0.989-2.502,0.989
		c-0.863,0-1.486-0.292-1.869-0.876s-0.471-1.367-0.264-2.353c0.227-1.055,0.674-1.896,1.342-2.521s1.453-0.938,2.355-0.938
		c0.809,0,1.435,0.27,1.878,0.809S48.819-32.494,48.597-31.446z M47.489-31.418c0.125-0.586,0.133-1.062,0.023-1.43
		c-0.176-0.578-0.627-0.867-1.354-0.867c-0.645,0-1.165,0.246-1.562,0.738s-0.669,1.086-0.817,1.781
		c-0.141,0.668-0.112,1.225,0.085,1.67c0.197,0.444,0.614,0.668,1.251,0.668c0.699,0,1.235-0.266,1.608-0.794
		C47.096-30.18,47.352-30.769,47.489-31.418z"/>
	<path fill="#646568" d="M54.515-36.785h3.486c1.184,0,2.012,0.42,2.484,1.261c0.422,0.758,0.506,1.729,0.252,2.912
		c-0.191,0.913-0.539,1.739-1.043,2.479c-0.879,1.305-2.057,1.957-3.533,1.957h-3.475L54.515-36.785z M56.149-29.174
		c0.395,0,0.727-0.041,0.996-0.123c0.484-0.152,0.918-0.445,1.301-0.878c0.305-0.348,0.564-0.792,0.779-1.335
		c0.129-0.324,0.223-0.625,0.281-0.901c0.227-1.064,0.19-1.893-0.108-2.481c-0.299-0.589-0.919-0.884-1.86-0.884H55.47l-1.4,6.604
		L56.149-29.174L56.149-29.174z"/>
	<path fill="#646568" d="M65.325-31.979c0.25-0.031,0.436-0.133,0.557-0.306c0.066-0.094,0.117-0.229,0.152-0.403
		c0.078-0.359,0.006-0.62-0.217-0.782c-0.223-0.162-0.572-0.243-1.049-0.243c-0.551,0-0.973,0.148-1.266,0.445
		c-0.164,0.164-0.299,0.408-0.404,0.731h-0.984c0.184-0.772,0.549-1.312,1.096-1.613c0.547-0.303,1.139-0.454,1.775-0.454
		c0.738,0,1.307,0.141,1.705,0.422s0.535,0.719,0.41,1.312l-0.768,3.615c-0.023,0.109-0.021,0.197,0.009,0.264
		c0.03,0.067,0.116,0.101,0.261,0.101c0.047,0,0.101-0.003,0.161-0.009c0.06-0.007,0.126-0.016,0.196-0.026l-0.17,0.779
		c-0.172,0.047-0.302,0.076-0.39,0.088c-0.088,0.012-0.206,0.018-0.354,0.018c-0.363,0-0.6-0.129-0.709-0.387
		c-0.059-0.137-0.078-0.33-0.059-0.58c-0.277,0.281-0.639,0.525-1.084,0.732c-0.445,0.207-0.91,0.311-1.395,0.311
		c-0.582,0-1.021-0.177-1.315-0.53c-0.294-0.353-0.386-0.796-0.272-1.327c0.125-0.581,0.403-1.032,0.835-1.354
		c0.432-0.321,0.95-0.518,1.556-0.592L65.325-31.979z M63.233-28.862c0.371,0,0.75-0.087,1.137-0.259
		c0.645-0.285,1.037-0.752,1.178-1.399l0.176-0.851c-0.145,0.082-0.324,0.15-0.539,0.205c-0.215,0.056-0.422,0.095-0.621,0.117
		l-0.656,0.082c-0.395,0.051-0.699,0.131-0.914,0.24c-0.363,0.184-0.588,0.477-0.674,0.879c-0.066,0.305-0.007,0.545,0.179,0.721
		S62.929-28.862,63.233-28.862z"/>
	<path fill="#646568" d="M69.749-36.205h1.066l-0.375,1.752h1.002l-0.182,0.861h-1.001l-0.873,4.096
		c-0.047,0.22-0.004,0.365,0.129,0.439c0.074,0.043,0.207,0.063,0.398,0.063c0.051,0,0.105-0.001,0.164-0.003
		s0.129-0.007,0.211-0.015l-0.176,0.832c-0.129,0.035-0.261,0.061-0.396,0.076c-0.135,0.015-0.278,0.022-0.431,0.022
		c-0.492,0-0.8-0.126-0.923-0.378s-0.142-0.579-0.056-0.98l0.885-4.154h-0.85l0.182-0.861h0.85L69.749-36.205z"/>
	<path fill="#646568" d="M75.333-31.979c0.25-0.031,0.436-0.133,0.557-0.306c0.066-0.094,0.117-0.229,0.152-0.403
		c0.078-0.359,0.006-0.62-0.217-0.782c-0.223-0.162-0.572-0.243-1.049-0.243c-0.551,0-0.973,0.148-1.266,0.445
		c-0.164,0.164-0.299,0.408-0.404,0.731h-0.984c0.184-0.772,0.549-1.312,1.096-1.613c0.547-0.303,1.139-0.454,1.775-0.454
		c0.738,0,1.307,0.141,1.705,0.422s0.535,0.719,0.41,1.312l-0.768,3.615c-0.023,0.109-0.021,0.197,0.009,0.264
		c0.03,0.067,0.116,0.101,0.261,0.101c0.047,0,0.101-0.003,0.161-0.009c0.06-0.007,0.126-0.016,0.196-0.026l-0.17,0.779
		c-0.172,0.047-0.302,0.076-0.39,0.088s-0.206,0.018-0.354,0.018c-0.363,0-0.6-0.129-0.709-0.387
		c-0.059-0.137-0.078-0.33-0.059-0.58c-0.277,0.281-0.639,0.525-1.084,0.732c-0.445,0.207-0.91,0.311-1.395,0.311
		c-0.582,0-1.021-0.177-1.315-0.53c-0.294-0.353-0.386-0.796-0.272-1.327c0.125-0.581,0.403-1.032,0.835-1.354
		s0.95-0.518,1.556-0.592L75.333-31.979z M73.241-28.862c0.371,0,0.75-0.087,1.137-0.259c0.645-0.285,1.037-0.752,1.178-1.399
		l0.176-0.851c-0.145,0.082-0.324,0.15-0.539,0.205c-0.215,0.056-0.422,0.095-0.621,0.117l-0.656,0.082
		c-0.395,0.051-0.699,0.131-0.914,0.24c-0.363,0.184-0.588,0.477-0.674,0.879c-0.066,0.305-0.007,0.545,0.179,0.721
		C72.693-28.951,72.936-28.862,73.241-28.862z"/>
</g>
</svg>
